<svg viewBox="0 0 19 19" fill="none" xmlns="http://www.w3.org/2000/svg">
<path d="M9.3125 4.70508C6.6875 4.70508 4.5957 6.83789 4.5957 9.42188C4.5957 12.0469 6.6875 14.1387 9.3125 14.1387C11.8965 14.1387 14.0293 12.0469 14.0293 9.42188C14.0293 6.83789 11.8965 4.70508 9.3125 4.70508ZM9.3125 12.498C7.63086 12.498 6.23633 11.1445 6.23633 9.42188C6.23633 7.74023 7.58984 6.38672 9.3125 6.38672C10.9941 6.38672 12.3477 7.74023 12.3477 9.42188C12.3477 11.1445 10.9941 12.498 9.3125 12.498ZM15.3008 4.54102C15.3008 3.92578 14.8086 3.43359 14.1934 3.43359C13.5781 3.43359 13.0859 3.92578 13.0859 4.54102C13.0859 5.15625 13.5781 5.64844 14.1934 5.64844C14.8086 5.64844 15.3008 5.15625 15.3008 4.54102ZM18.418 5.64844C18.3359 4.17188 18.0078 2.85938 16.9414 1.79297C15.875 0.726562 14.5625 0.398438 13.0859 0.316406C11.5684 0.234375 7.01562 0.234375 5.49805 0.316406C4.02148 0.398438 2.75 0.726562 1.64258 1.79297C0.576172 2.85938 0.248047 4.17188 0.166016 5.64844C0.0839844 7.16602 0.0839844 11.7188 0.166016 13.2363C0.248047 14.7129 0.576172 15.9844 1.64258 17.0918C2.75 18.1582 4.02148 18.4863 5.49805 18.5684C7.01562 18.6504 11.5684 18.6504 13.0859 18.5684C14.5625 18.4863 15.875 18.1582 16.9414 17.0918C18.0078 15.9844 18.3359 14.7129 18.418 13.2363C18.5 11.7188 18.5 7.16602 18.418 5.64844ZM16.4492 14.8359C16.1621 15.6562 15.5059 16.2715 14.7266 16.5996C13.4961 17.0918 10.625 16.9688 9.3125 16.9688C7.95898 16.9688 5.08789 17.0918 3.89844 16.5996C3.07812 16.2715 2.46289 15.6562 2.13477 14.8359C1.64258 13.6465 1.76562 10.7754 1.76562 9.42188C1.76562 8.10938 1.64258 5.23828 2.13477 4.00781C2.46289 3.22852 3.07812 2.61328 3.89844 2.28516C5.08789 1.79297 7.95898 1.91602 9.3125 1.91602C10.625 1.91602 13.4961 1.79297 14.7266 2.28516C15.5059 2.57227 16.1211 3.22852 16.4492 4.00781C16.9414 5.23828 16.8184 8.10938 16.8184 9.42188C16.8184 10.7754 16.9414 13.6465 16.4492 14.8359Z" fill="white"/>
</svg>
