<svg viewBox="0 0 19 22" fill="none" xmlns="http://www.w3.org/2000/svg">
<path d="M18.875 9.53516V5.9668C18.834 5.9668 18.834 5.9668 18.834 5.9668C17.8496 5.9668 16.9062 5.67969 16.127 5.14648C14.9785 4.4082 14.1582 3.21875 13.9121 1.86523C13.8301 1.57812 13.8301 1.29102 13.8301 1.00391C13.8301 0.962891 13.8301 0.962891 13.8301 0.921875H10.2207V15.2773C10.2207 16.959 8.82617 18.3535 7.14453 18.3535C5.46289 18.3535 4.06836 16.959 4.06836 15.2773C4.06836 13.5957 5.46289 12.2012 7.14453 12.2012C7.47266 12.2012 7.75977 12.2422 8.08789 12.3652V8.67383C7.75977 8.63281 7.47266 8.5918 7.14453 8.5918C3.45312 8.5918 0.5 11.5859 0.5 15.2773C0.5 18.9688 3.45312 21.9219 7.14453 21.9219C10.8359 21.9219 13.8301 18.9688 13.8301 15.2773V7.93555C15.2246 8.96094 16.9473 9.53516 18.834 9.53516H18.875Z" fill="white"/>
</svg>
