<svg viewBox="0 0 22 18" fill="none" xmlns="http://www.w3.org/2000/svg">
<path d="M18.9512 5.15625C19.7715 4.54102 20.5098 3.80273 21.084 2.94141C20.3457 3.26953 19.4844 3.51562 18.623 3.59766C19.5254 3.06445 20.1816 2.24414 20.5098 1.21875C19.6895 1.71094 18.7461 2.08008 17.8027 2.28516C16.9824 1.42383 15.875 0.931641 14.6445 0.931641C12.2656 0.931641 10.3379 2.85938 10.3379 5.23828C10.3379 5.56641 10.3789 5.89453 10.4609 6.22266C6.89258 6.01758 3.69336 4.29492 1.56055 1.71094C1.19141 2.32617 0.986328 3.06445 0.986328 3.88477C0.986328 5.36133 1.72461 6.67383 2.91406 7.45312C2.2168 7.41211 1.51953 7.24805 0.945312 6.91992V6.96094C0.945312 9.05273 2.42188 10.7754 4.39062 11.1855C4.0625 11.2676 3.65234 11.3496 3.2832 11.3496C2.99609 11.3496 2.75 11.3086 2.46289 11.2676C2.99609 12.9902 4.5957 14.2207 6.48242 14.2617C5.00586 15.4102 3.16016 16.1074 1.15039 16.1074C0.78125 16.1074 0.453125 16.0664 0.125 16.0254C2.01172 17.2559 4.26758 17.9531 6.72852 17.9531C14.6445 17.9531 18.9512 11.4316 18.9512 5.73047C18.9512 5.52539 18.9512 5.36133 18.9512 5.15625Z" fill="white"/>
</svg>
