<svg viewBox="0 0 23 17" fill="none" xmlns="http://www.w3.org/2000/svg">
<path d="M22.2051 3.04883C21.959 2.06445 21.1797 1.28516 20.2363 1.03906C18.4727 0.546875 11.5 0.546875 11.5 0.546875C11.5 0.546875 4.48633 0.546875 2.72266 1.03906C1.7793 1.28516 1 2.06445 0.753906 3.04883C0.261719 4.77148 0.261719 8.46289 0.261719 8.46289C0.261719 8.46289 0.261719 12.1133 0.753906 13.877C1 14.8613 1.7793 15.5996 2.72266 15.8457C4.48633 16.2969 11.5 16.2969 11.5 16.2969C11.5 16.2969 18.4727 16.2969 20.2363 15.8457C21.1797 15.5996 21.959 14.8613 22.2051 13.877C22.6973 12.1133 22.6973 8.46289 22.6973 8.46289C22.6973 8.46289 22.6973 4.77148 22.2051 3.04883ZM9.20312 11.7852V5.14062L15.0273 8.46289L9.20312 11.7852Z" fill="white"/>
</svg>
